PathFileType	4	(X/Y/Z)	/Users/itak/Documents/Research/Walk-IL/dataset/trc/00093_00006.trc
DataRate	CameraRate	NumFrames	NumMarkers	Units	OrigDataRate	OrigDataStartFrame	OrigNumFrames
100.000000	100.000000	4	53	mm	100.000000	0	475
Frame#	Time	RPSI			LPSI			L3			STRN			T10			C7			CLAV			RBAK			LBAK			LSHO			LUPA			LAEL			LAOL			LWTS			LWPS			LFRA			LIFD			LHPS			LHTS			RSHO			RUPA			RAEL			RAOL			RWTS			RWPS			RFRA			RIFD			RHTS			RHPS			RBHD			LFHD			RFHD			LBHD			LHIP			RHIP			RASI			LASI			LKNE			LTHI			LANK			LTIP			LTOE			LMT1			LMT5			LHEE			RKNE			RTHI			RANK			RTIP			RTOE			RMT1			RMT5			RHEE			
		X1	Y1	Z1	X2	Y2	Z2	X3	Y3	Z3	X4	Y4	Z4	X5	Y5	Z5	X6	Y6	Z6	X7	Y7	Z7	X8	Y8	Z8	X9	Y9	Z9	X10	Y10	Z10	X11	Y11	Z11	X12	Y12	Z12	X13	Y13	Z13	X14	Y14	Z14	X15	Y15	Z15	X16	Y16	Z16	X17	Y17	Z17	X18	Y18	Z18	X19	Y19	Z19	X20	Y20	Z20	X21	Y21	Z21	X22	Y22	Z22	X23	Y23	Z23	X24	Y24	Z24	X25	Y25	Z25	X26	Y26	Z26	X27	Y27	Z27	X28	Y28	Z28	X29	Y29	Z29	X30	Y30	Z30	X31	Y31	Z31	X32	Y32	Z32	X33	Y33	Z33	X34	Y34	Z34	X35	Y35	Z35	X36	Y36	Z36	X37	Y37	Z37	X38	Y38	Z38	X39	Y39	Z39	X40	Y40	Z40	X41	Y41	Z41	X42	Y42	Z42	X43	Y43	Z43	X44	Y44	Z44	X45	Y45	Z45	X46	Y46	Z46	X47	Y47	Z47	X48	Y48	Z48	X49	Y49	Z49	X50	Y50	Z50	X51	Y51	Z51	X52	Y52	Z52	X53	Y53	Z53	

1	0	-1360.174438476562	1038.505615234375	117.4155502319336	-1361.588989257812	1031.0126953125	-57.45568466186523	-1356.12255859375	1084.1220703125	24.01124000549316	-1119.77001953125	1287.464477539062	41.88625717163086	-1382.111328125	1218.353637695312	20.98599624633789	-1328.26611328125	1486.112060546875	20.2531852722168	-1150.741333007812	1401.570922851562	37.30922317504883	-1393.14501953125	1346.517700195312	92.37730407714844	-1340.899780273438	1446.870727539062	-83.06906890869141	-1231.014892578125	1451.567260742188	-146.6909942626953	-1235.767211914062	1320.824951171875	-220.9820861816406	-1203.535400390625	1106.010498046875	-228.7265625	-1275.027587890625	1091.548217773438	-150.5177154541016	-1113.196166992188	872.1075439453125	-147.6617431640625	-1162.307983398438	857.5679931640625	-213.8064880371094	-1178.62548828125	998.0231323242188	-230.0805358886719	-1104.747924804688	689.4074096679688	-116.4053497314453	-1127.150512695312	777.880615234375	-202.6286468505859	-1087.96826171875	789.5560302734375	-146.9208374023438	-1278.470336914062	1451.453125	203.0230865478516	-1289.677856445312	1379.237182617188	266.4269104003906	-1303.923950195312	1109.625854492188	280.0924072265625	-1288.18115234375	1093.408447265625	184.6671142578125	-1162.660888671875	859.7483520507812	242.6109313964844	-1234.218383789062	845.4172973632812	292.1612548828125	-1289.978149414062	1032.840087890625	283.9558410644531	-1166.210815429688	675.4790649414062	219.95068359375	-1138.530395507812	759.4829711914062	243.5336608886719	-1196.61962890625	755.952880859375	296.1675720214844	-1316.050415039062	1648.665161132812	82.88727569580078	-1117.332641601562	1715.2158203125	9.249612808227539	-1159.897216796875	1702.586303710938	127.2143707275391	-1279.546264648438	1668.421752929688	-49.73619842529297	-1254.871459960938	964.662109375	-140.8004608154297	-1296.0263671875	966.35205078125	197.6436767578125	-1170.435424804688	982.127197265625	183.1419982910156	-1143.800048828125	973.9306030273438	-86.49243927001953	-1199.133422851562	500.8154602050781	-90.30358123779297	-1225.038208007812	642.4752807617188	-126.1390762329102	-1338.78759765625	53.38310241699219	-113.1308288574219	-1275.800903320312	266.0946960449219	-115.4598541259766	-1133.75830078125	47.25850296020508	-99.74772644042969	-1183.234497070312	46.82918930053711	-48.61357879638672	-1234.800537109375	43.93989181518555	-147.6923980712891	-1392.936401367188	51.49023818969727	-38.9602165222168	-1233.63916015625	520.6983642578125	177.6610870361328	-1217.913452148438	791.681640625	208.884033203125	-1326.47998046875	47.45111083984375	169.1975708007812	-1258.693969726562	400.0690612792969	180.3898315429688	-1108.512817382812	42.7093391418457	136.9746704101562	-1170.491455078125	47.12386703491211	95.54134368896484	-1202.686889648438	50.77754974365234	187.8584442138672	-1373.33984375	46.98330307006836	111.3811950683594	
2	0.01	-1360.201416015625	1038.501831054688	117.464241027832	-1361.628784179688	1031.002563476562	-57.42006301879883	-1356.17236328125	1084.1328125	24.05524444580078	-1119.772094726562	1287.473510742188	41.94970703125	-1382.154418945312	1218.382934570312	21.03616905212402	-1328.257568359375	1486.111328125	20.28081893920898	-1150.770629882812	1401.551635742188	37.38469696044922	-1393.156372070312	1346.540283203125	92.42405700683594	-1340.896240234375	1446.89306640625	-83.01626586914062	-1230.980590820312	1451.550170898438	-146.6218566894531	-1235.769653320312	1320.80712890625	-220.8966369628906	-1203.794677734375	1105.930786132812	-228.5196228027344	-1275.276977539062	1091.579956054688	-150.3316955566406	-1113.88623046875	871.8914184570312	-147.3989868164062	-1163.001098632812	857.4346923828125	-213.5727233886719	-1179.024536132812	997.9110107421875	-229.8452758789062	-1105.78125	689.1671142578125	-116.1050186157227	-1128.003784179688	777.6845092773438	-202.3659820556641	-1088.732055664062	789.2811279296875	-146.6262817382812	-1278.49365234375	1451.455810546875	203.0910186767578	-1289.760620117188	1379.243041992188	266.484375	-1304.323364257812	1109.681884765625	280.0833740234375	-1288.477416992188	1093.40380859375	184.5946807861328	-1163.382568359375	859.59814453125	242.7918090820312	-1234.974365234375	845.4124755859375	292.3103942871094	-1290.369384765625	1032.89599609375	284.0577697753906	-1167.12646484375	675.2994384765625	220.2798156738281	-1139.402709960938	759.2178955078125	243.9094390869141	-1197.511474609375	756.0457153320312	296.4385986328125	-1316.039428710938	1648.6552734375	82.94666290283203	-1117.32177734375	1715.209594726562	9.332082748413086	-1159.900756835938	1702.589965820312	127.2621917724609	-1279.553588867188	1668.401245117188	-49.63954162597656	-1254.905395507812	964.657958984375	-140.7605590820312	-1296.071411132812	966.3447875976562	197.6765594482422	-1170.413208007812	982.1448974609375	183.1739196777344	-1143.844604492188	973.9315185546875	-86.45513916015625	-1199.083740234375	500.8147888183594	-90.278076171875	-1225.048706054688	642.4754638671875	-126.1153259277344	-1338.7880859375	53.38104629516602	-113.1226196289062	-1275.733032226562	266.0546264648438	-115.4315490722656	-1133.757568359375	47.26360321044922	-99.74825286865234	-1183.2412109375	46.83084487915039	-48.6143798828125	-1234.805908203125	43.97001647949219	-147.6922607421875	-1392.933715820312	51.48547744750977	-38.95046234130859	-1233.694702148438	520.6865234375	177.6700286865234	-1218.208740234375	791.7335205078125	208.9430999755859	-1326.489624023438	47.45262908935547	169.2033386230469	-1258.736694335938	400.0950012207031	180.4306945800781	-1108.518432617188	42.71266937255859	136.9748687744141	-1170.496826171875	47.12155914306641	95.54164886474609	-1202.686157226562	50.7787971496582	187.8569946289062	-1373.341674804688	46.95649719238281	111.3869323730469	
3	0.02	-1360.236328125	1038.495483398438	117.5239410400391	-1361.677978515625	1030.989624023438	-57.37576675415039	-1356.238159179688	1084.1474609375	24.10897064208984	-1119.783203125	1287.478149414062	42.03767395019531	-1382.205688476562	1218.418701171875	21.09980010986328	-1328.245483398438	1486.11328125	20.31986618041992	-1150.809326171875	1401.525756835938	37.48022842407227	-1393.171020507812	1346.570190429688	92.48426055908203	-1340.892578125	1446.919921875	-82.94986724853516	-1230.940673828125	1451.529907226562	-146.5360412597656	-1235.78515625	1320.785278320312	-220.7926025390625	-1204.130249023438	1105.833251953125	-228.2768707275391	-1275.617553710938	1091.6240234375	-150.1159057617188	-1114.740356445312	871.6253051757812	-147.0711822509766	-1163.8564453125	857.268310546875	-213.2899322509766	-1179.529052734375	997.773193359375	-229.5636901855469	-1107.10107421875	688.880126953125	-115.7535247802734	-1129.051513671875	777.4470825195312	-202.0475158691406	-1089.648803710938	788.9467163085938	-146.2651214599609	-1278.519409179688	1451.46044921875	203.1765594482422	-1289.857788085938	1379.252685546875	266.5588684082031	-1304.794189453125	1109.749755859375	280.0980834960938	-1288.828491210938	1093.40087890625	184.5235443115234	-1164.262817382812	859.4158325195312	243.0166015625	-1235.890991210938	845.4039916992188	292.5000610351562	-1290.860595703125	1032.962768554688	284.183349609375	-1168.283325195312	675.0955200195312	220.6580352783203	-1140.44287109375	758.9365844726562	244.3313903808594	-1198.589965820312	756.1254272460938	296.7584533691406	-1316.026000976562	1648.643188476562	83.01768493652344	-1117.305053710938	1715.200927734375	9.439022064208984	-1159.902587890625	1702.592651367188	127.3210983276367	-1279.563354492188	1668.375	-49.51923751831055	-1254.945190429688	964.6522827148438	-140.7127227783203	-1296.136352539062	966.3361206054688	197.7176055908203	-1170.410766601562	982.164306640625	183.2126617431641	-1143.90283203125	973.93310546875	-86.40288543701172	-1199.018676757812	500.8136901855469	-90.24222564697266	-1225.060668945312	642.4763793945312	-126.0857086181641	-1338.789428710938	53.37907409667969	-113.1128768920898	-1275.662719726562	266.015625	-115.4001617431641	-1133.756469726562	47.26944732666016	-99.74845886230469	-1183.246459960938	46.83197402954102	-48.61480331420898	-1234.811157226562	44.00113296508789	-147.6917266845703	-1392.932373046875	51.48146057128906	-38.93800735473633	-1233.7548828125	520.6712036132812	177.6828155517578	-1218.487548828125	791.7951049804688	208.9888305664062	-1326.500732421875	47.45363998413086	169.2094573974609	-1258.79931640625	400.1175231933594	180.5084533691406	-1108.525634765625	42.71634292602539	136.9756622314453	-1170.503784179688	47.11945343017578	95.54271697998047	-1202.687377929688	50.77947998046875	187.8548431396484	-1373.3447265625	46.93021774291992	111.3959655761719	
4	0.03	-1360.277954101562	1038.486206054688	117.591194152832	-1361.73486328125	1030.97412109375	-57.32523727416992	-1356.319091796875	1084.166381835938	24.16879081726074	-1119.80615234375	1287.475219726562	42.14948272705078	-1382.262084960938	1218.459106445312	21.17372894287109	-1328.230102539062	1486.118896484375	20.37080574035645	-1150.856811523438	1401.493896484375	37.59237670898438	-1393.188842773438	1346.6064453125	92.55601501464844	-1340.889526367188	1446.949951171875	-82.87265777587891	-1230.89794921875	1451.508422851562	-146.4376831054688	-1235.818603515625	1320.76025390625	-220.6758270263672	-1204.530395507812	1105.72314453125	-228.0167999267578	-1276.04541015625	1091.680541992188	-149.8882598876953	-1115.716186523438	871.3231201171875	-146.6952056884766	-1164.830810546875	857.0785522460938	-212.9761352539062	-1180.1181640625	997.6171264648438	-229.2545013427734	-1108.647705078125	688.5640258789062	-115.3753128051758	-1130.240356445312	777.181640625	-201.6930236816406	-1090.665649414062	788.5753784179688	-145.8554534912109	-1278.54541015625	1451.467529296875	203.2763977050781	-1289.963134765625	1379.266845703125	266.6476745605469	-1305.304077148438	1109.825439453125	280.1468505859375	-1289.206298828125	1093.401000976562	184.4677581787109	-1165.243896484375	859.2119750976562	243.2751617431641	-1236.919921875	845.3920288085938	292.7196350097656	-1291.431884765625	1033.0361328125	284.3245849609375	-1169.610595703125	674.88232421875	221.0632629394531	-1141.588623046875	758.6602783203125	244.7684478759766	-1199.795532226562	756.1754760742188	297.1131591796875	-1316.01123046875	1648.630004882812	83.09573364257812	-1117.28125	1715.189697265625	9.566986083984375	-1159.9013671875	1702.593139648438	127.3883056640625	-1279.575317382812	1668.343872070312	-49.38070297241211	-1254.987060546875	964.6453247070312	-140.6595764160156	-1296.223266601562	966.3265380859375	197.7641754150391	-1170.44091796875	982.1834716796875	183.2567291259766	-1143.972778320312	973.93505859375	-86.33525848388672	-1198.941284179688	500.8125305175781	-90.19601440429688	-1225.072631835938	642.478515625	-126.0514602661133	-1338.791381835938	53.37735748291016	-113.1023101806641	-1275.59716796875	265.9824523925781	-115.3684844970703	-1133.754638671875	47.27546310424805	-99.74828338623047	-1183.25	46.83253860473633	-48.61437225341797	-1234.815551757812	44.02963638305664	-147.6909332275391	-1392.9326171875	51.47842025756836	-38.92322540283203	-1233.814086914062	520.6533813476562	177.7005310058594	-1218.705932617188	791.8495483398438	209.0178680419922	-1326.511962890625	47.45336532592773	169.2158966064453	-1258.87890625	400.1281433105469	180.6244964599609	-1108.533813476562	42.71990585327148	136.9774780273438	-1170.511596679688	47.11833190917969	95.54462432861328	-1202.69140625	50.77909851074219	187.8527374267578	-1373.3486328125	46.90710067749023	111.4086227416992	
